<svg width="70" height="70" viewBox="0 0 70 70" fill="none" xmlns="http://www.w3.org/2000/svg">
<g filter="url(#filter0_d)">
<ellipse cx="35.1548" cy="21.8014" rx="16.6826" ry="16.7999" fill="#00A89C"/>
</g>
<path d="M40.3682 21.8015C40.3682 23.1939 39.819 24.5292 38.8413 25.5138C37.8636 26.4983 36.5375 27.0515 35.1549 27.0515C33.7722 27.0515 32.4462 26.4983 31.4685 25.5138C30.4908 24.5292 29.9415 23.1939 29.9415 21.8015C29.9415 21.5022 29.9728 21.21 30.0267 20.9265H28.2037V27.9212C28.2037 28.4077 28.5947 28.8015 29.0778 28.8015H41.2336C41.4652 28.801 41.687 28.7081 41.8506 28.543C42.0141 28.378 42.106 28.1544 42.106 27.9212V20.9265H40.2831C40.3369 21.21 40.3682 21.5022 40.3682 21.8015ZM35.1549 25.3015C35.6114 25.3014 36.0634 25.2107 36.4852 25.0346C36.9069 24.8586 37.2901 24.6006 37.6128 24.2755C37.9356 23.9503 38.1915 23.5643 38.3661 23.1395C38.5407 22.7147 38.6306 22.2595 38.6304 21.7997C38.6303 21.34 38.5403 20.8848 38.3655 20.4601C38.1907 20.0354 37.9345 19.6495 37.6116 19.3245C37.2887 18.9995 36.9054 18.7417 36.4836 18.5659C36.0618 18.39 35.6097 18.2996 35.1531 18.2997C34.2311 18.2999 33.347 18.669 32.6952 19.3257C32.0434 19.9824 31.6773 20.873 31.6776 21.8015C31.6778 22.73 32.0443 23.6203 32.6964 24.2767C33.3485 24.9331 34.2329 25.3017 35.1549 25.3015ZM39.3256 18.1265H41.4091C41.5476 18.1265 41.6804 18.0712 41.7784 17.9728C41.8764 17.8744 41.9318 17.7409 41.9322 17.6015V15.5032C41.9322 15.3635 41.8771 15.2295 41.779 15.1307C41.6809 15.032 41.5479 14.9765 41.4091 14.9765H39.3256C39.1868 14.9765 39.0538 15.032 38.9557 15.1307C38.8576 15.2295 38.8025 15.3635 38.8025 15.5032V17.6015C38.8042 17.8902 39.0388 18.1265 39.3256 18.1265ZM35.1549 5.00146C30.7303 5.00146 26.487 6.77146 23.3584 9.92207C20.2298 13.0727 18.4722 17.3458 18.4722 21.8015C18.4722 26.2571 20.2298 30.5303 23.3584 33.6809C26.487 36.8315 30.7303 38.6015 35.1549 38.6015C37.3457 38.6015 39.515 38.1669 41.5391 37.3226C43.5631 36.4784 45.4022 35.2409 46.9513 33.6809C48.5005 32.1208 49.7293 30.2688 50.5677 28.2306C51.4061 26.1923 51.8376 24.0077 51.8376 21.8015C51.8376 19.5953 51.4061 17.4107 50.5677 15.3724C49.7293 13.3341 48.5005 11.4821 46.9513 9.92207C45.4022 8.36205 43.5631 7.12457 41.5391 6.28029C39.515 5.43601 37.3457 5.00146 35.1549 5.00146ZM43.8438 28.6072C43.8438 29.6765 42.9749 30.5515 41.9131 30.5515H28.3966C27.3349 30.5515 26.466 29.6765 26.466 28.6072V14.9957C26.466 13.9265 27.3349 13.0515 28.3966 13.0515H41.9131C42.9749 13.0515 43.8438 13.9265 43.8438 14.9957V28.6072Z" fill="white"/>
<defs>
<filter id="filter0_d" x="0.472168" y="0.00146484" width="69.3653" height="69.5999" filterUnits="userSpaceOnUse" color-interpolation-filters="sRGB">
<feFlood flood-opacity="0" result="BackgroundImageFix"/>
<feColorMatrix in="SourceAlpha" type="matrix" values="0 0 0 0 0 0 0 0 0 0 0 0 0 0 0 0 0 0 127 0"/>
<feOffset dy="13"/>
<feGaussianBlur stdDeviation="9"/>
<feColorMatrix type="matrix" values="0 0 0 0 0.0658854 0 0 0 0 0.0730469 0 0 0 0 0.1375 0 0 0 0.08 0"/>
<feBlend mode="normal" in2="BackgroundImageFix" result="effect1_dropShadow"/>
<feBlend mode="normal" in="SourceGraphic" in2="effect1_dropShadow" result="shape"/>
</filter>
</defs>
</svg>
